<?xml version="1.0" encoding="UTF-8" standalone="no"?>
<!-- Created with Inkscape (http://www.inkscape.org/) -->

<svg
   xmlns:dc="http://purl.org/dc/elements/1.1/"
   xmlns:cc="http://creativecommons.org/ns#"
   xmlns:rdf="http://www.w3.org/1999/02/22-rdf-syntax-ns#"
   xmlns:svg="http://www.w3.org/2000/svg"
   xmlns="http://www.w3.org/2000/svg"
   xmlns:xlink="http://www.w3.org/1999/xlink"
   xmlns:sodipodi="http://sodipodi.sourceforge.net/DTD/sodipodi-0.dtd"
   xmlns:inkscape="http://www.inkscape.org/namespaces/inkscape"
   width="100"
   height="100"
   viewBox="0 0 100 100"
   id="svg44604"
   version="1.1"
   inkscape:version="0.48.5 r10040"
   sodipodi:docname="logo_raisweb.svg">
  <defs
     id="defs44606">
    <linearGradient
       y2="-114.11133"
       x2="1006.9856"
       y1="-482.40479"
       x1="1006.9856"
       gradientTransform="matrix(0.66662666,0,0,0.66662666,-1612.6078,923.62441)"
       gradientUnits="userSpaceOnUse"
       id="linearGradient3079"
       xlink:href="#linearGradient3909-74"
       inkscape:collect="always" />
    <linearGradient
       id="linearGradient3909-74">
      <stop
         style="stop-color:#0085ea;stop-opacity:1;"
         offset="0"
         id="stop3911-09" />
      <stop
         style="stop-color:#183348;stop-opacity:1;"
         offset="1"
         id="stop3913-4" />
    </linearGradient>
  </defs>
  <sodipodi:namedview
     id="base"
     pagecolor="#ffffff"
     bordercolor="#666666"
     borderopacity="1.0"
     inkscape:pageopacity="0.0"
     inkscape:pageshadow="2"
     inkscape:zoom="0.70710678"
     inkscape:cx="-233.62173"
     inkscape:cy="9.5699642"
     inkscape:document-units="px"
     inkscape:current-layer="layer1"
     showgrid="false"
     units="px"
     inkscape:window-width="1366"
     inkscape:window-height="705"
     inkscape:window-x="-8"
     inkscape:window-y="-8"
     inkscape:window-maximized="1" />
  <metadata
     id="metadata44609">
    <rdf:RDF>
      <cc:Work
         rdf:about="">
        <dc:format>image/svg+xml</dc:format>
        <dc:type
           rdf:resource="http://purl.org/dc/dcmitype/StillImage" />
        <dc:title />
      </cc:Work>
    </rdf:RDF>
  </metadata>
  <g
     inkscape:label="Camada 1"
     inkscape:groupmode="layer"
     id="layer1"
     transform="translate(0,-952.36216)">
    <path
       style="fill:#0066ff;fill-opacity:1;stroke:none"
       d="m 62.350388,953.86835 0.12118,30.1193 c 0.34803,6.0941 3.44856,8.5834 5.09332,11.5939 2.62376,4.80255 5.395977,6.37155 8.530987,9.33065 2.19668,2.1133 5.941563,12.2471 10.590233,12.9149 -2.41846,0.2059 -5.2501,-3.5744 -7.92194,-6.5561 -0.87373,-0.9751 -2.33171,-3.1586 -3.05375,-3.9835 -1.72468,-1.9703 -5.45739,-4.9258 -4.68712,-3.972 1.65398,2.0478 1.82893,5.4247 2.53452,7.5396 0.96719,2.8989 3.21804,4.7886 3.21804,4.7886 -2.4005,-1.7749 -5.1577,-4.0496 -5.73386,-5.82 -1.21074,-6.3517 -6.51824,-14.08385 -10.68904,-18.23695 -1.09048,6.2617 0.77518,5.0168 3.69854,16.54075 1.05388,0.2824 5.60969,6.3863 6.7295,8.7727 1.3905,2.9633 2.6735,4.3654 5.24434,5.0416 -1.61663,0.033 -4.19469,-1.9172 -6.24917,-5.3217 -0.84161,-1.3947 -4.1416,-5.3529 -6.29621,-5.1909 -1.17099,2.7516 2.38061,15.5034 -1.91459,17.1075 3.84542,-2.2421 -0.71433,-14.0521 -0.85961,-16.7737 -1.57224,-7.3898 -0.68625,-12.68565 -6.42824,-18.12185 -1.65698,4.0963 0.4214,7.15465 0.66242,11.67545 0.51683,5.7575 -0.06772,11.524 2.86504,13.4246 -3.29195,-0.9025 -3.79876,-5.2336 -5.60198,-7.2453 -1.58063,0.8814 -5.69386,5.1189 -3.7845,15.8907 -2.79414,-8.6112 1.80289,-17.8475 2.78563,-19.4239 -0.0214,-1.6035 1.16958,-11.35745 -3.10664,-14.00665 -1.92676,4.5796 -0.793963,8.44195 -4.613673,16.24485 -2.20841,4.5112 -12.189157,12.6078 -9.733167,25.8578 -2.82245,-12.5246 5.2226,-20.0575 7.55838,-25.57 -1.16353,0.2584 -2.7911,0.3127 -4.06415,0.9908 -1.98489,1.0572 -3.58492,2.9156 -4.89098,3.9246 l -0.93268,0.7903 c 2.18321,-2.5132 3.562253,-7.3186 8.291653,-8.5351 1.68969,-4.6492 4.127807,-6.1016 4.007407,-12.98335 -7.52975,10.51455 -14.39906,12.71615 -17.56882,14.05775 0.0107,2.2917 -2.16107,7.7182 -5.98123,11.2174 3.49993,-3.8838 3.2161,-7.3617 2.95959,-9.8717 -5.08083,0.4346 -8.67164,2.844 -11.32715,8.1706 -1.26806,2.5436 0.474451,-4.4644 2.667661,-6.4581 3.1008,-1.758 5.506539,-3.6871 8.459489,-4.9203 6.636,-2.7849 8.652506,-3.9492 9.214266,-4.3497 4.18568,-3.44884 9.517454,-9.52025 10.641534,-20.82365 0.21876,-8.9286 0.0434,-28.9688 -0.17962,-28.9326 -24.10769,3.5743 -42.60599965,24.0915 -42.60599965,49.19315 0,27.6142 22.38579965,50 50.00000965,50 27.61427,0 49.99999,-22.3858 49.99999,-50 0,-20.88145 -15.4678,-43.23205 -37.64972,-48.17385 z"
       id="path3039-8"
       inkscape:connector-curvature="0"
       sodipodi:nodetypes="ccsccssssccccscsccccccccccsccscccccccscccccssscc"
       inkscape:export-filename="C:\Users\Israel e Ramayane\Desktop\logo.png"
       inkscape:export-xdpi="90"
       inkscape:export-ydpi="90" />
  </g>
</svg>
