<?xml version="1.0" encoding="UTF-8" standalone="no"?>
<!-- Generator: Adobe Illustrator 18.1.1, SVG Export Plug-In . SVG Version: 6.00 Build 0)  -->

<svg
   xmlns:dc="http://purl.org/dc/elements/1.1/"
   xmlns:cc="http://creativecommons.org/ns#"
   xmlns:rdf="http://www.w3.org/1999/02/22-rdf-syntax-ns#"
   xmlns:svg="http://www.w3.org/2000/svg"
   xmlns="http://www.w3.org/2000/svg"
   xmlns:sodipodi="http://sodipodi.sourceforge.net/DTD/sodipodi-0.dtd"
   xmlns:inkscape="http://www.inkscape.org/namespaces/inkscape"
   version="1.1"
   id="Capa_1"
   x="0px"
   y="0px"
   viewBox="0 0 487.678 487.678"
   style="enable-background:new 0 0 487.678 487.678;"
   xml:space="preserve"
   inkscape:version="0.48.5 r10040"
   sodipodi:docname="sem_img_profile.svg"
   inkscape:export-filename="/var/www/html/raisweb/wifood/application/images/sem_img_profile.png"
   inkscape:export-xdpi="90"
   inkscape:export-ydpi="90"
   width="100%"
   height="100%"><metadata
     id="metadata45"><rdf:RDF><cc:Work
         rdf:about=""><dc:format>image/svg+xml</dc:format><dc:type
           rdf:resource="http://purl.org/dc/dcmitype/StillImage" /><dc:title /></cc:Work></rdf:RDF></metadata><defs
     id="defs43" /><sodipodi:namedview
     pagecolor="#ffffff"
     bordercolor="#666666"
     borderopacity="1"
     objecttolerance="10"
     gridtolerance="10"
     guidetolerance="10"
     inkscape:pageopacity="0"
     inkscape:pageshadow="2"
     inkscape:window-width="1366"
     inkscape:window-height="705"
     id="namedview41"
     showgrid="false"
     inkscape:zoom="0.48392587"
     inkscape:cx="253.598"
     inkscape:cy="113.04316"
     inkscape:window-x="-8"
     inkscape:window-y="-8"
     inkscape:window-maximized="1"
     inkscape:current-layer="Capa_1" /><path
     style="opacity:1;fill:#008080;fill-opacity:1;stroke:none;stroke-width:0.38483074000000000;stroke-miterlimit:4;stroke-dasharray:none;stroke-opacity:1"
     d="M 0 0 L 0 487.68359 L 56.980469 487.68359 C 55.653469 487.14159 54.130578 482.31263 51.517578 468.26562 C 51.541578 467.28862 26.631699 341.16192 109.5957 310.16992 C 165.7977 291.81192 189.15625 268.98633 189.15625 268.98633 L 191.03906 270.7793 C 207.72906 286.4883 226.18695 295.72266 243.00195 295.72266 L 244.58984 295.72266 C 261.40584 295.72266 279.86469 286.4883 296.55469 270.7793 L 298.43555 268.98633 C 298.43555 268.98633 321.79705 291.81292 377.99805 310.16992 C 461.29705 341.66292 436.05412 467.28863 436.07812 468.26562 C 433.46512 482.31263 431.94223 487.14159 430.61523 487.68359 L 487.68359 487.68359 L 487.68359 0 L 0 0 z M 229.61133 30.021484 C 233.42545 29.899359 235.83984 30.388672 235.83984 30.388672 C 236.31684 30.391672 243.78716 31.887156 243.78516 31.910156 C 256.06516 34.327156 317.29102 55.121437 327.54102 86.148438 C 334.07002 105.57644 325.92773 146.66016 325.92773 146.66016 C 325.92773 146.66016 325.56247 146.41545 330.23047 150.68945 L 330.92773 151.44336 C 334.17573 154.25836 333.30356 166.24787 329.85156 177.92188 C 326.72356 189.61687 322.64597 192.762 321.66797 195.5 C 311.76497 241.997 279.14959 281.69727 244.05859 281.69727 C 208.96759 281.69727 174.53191 241.997 164.62891 195.5 C 163.65191 192.761 159.57527 189.61687 156.44727 177.92188 C 152.99527 166.24888 152.21505 155.02936 155.37305 151.44336 L 156.06836 150.68945 C 160.73736 146.41545 160.37305 146.66016 160.37305 146.66016 C 160.37305 146.66016 152.22981 105.57644 158.75781 86.148438 C 169.57681 53.408437 207.69533 36.123359 214.98633 33.318359 C 220.58383 30.876859 225.7972 30.143609 229.61133 30.021484 z "
     id="rect4173" /><g
     id="g11" /><g
     id="g13" /><g
     id="g15" /><g
     id="g17" /><g
     id="g19" /><g
     id="g21" /><g
     id="g23" /><g
     id="g25" /><g
     id="g27" /><g
     id="g29" /><g
     id="g31" /><g
     id="g33" /><g
     id="g35" /><g
     id="g37" /><g
     id="g39" /></svg>